<svg width="20" height="22" viewBox="0 0 20 22" fill="none" xmlns="http://www.w3.org/2000/svg">
<path d="M12.848 17.4767C12.8473 16.983 12.9795 16.4983 13.2305 16.0731L6.92159 12.3987C6.67754 12.8179 6.32801 13.1655 5.9075 13.4072C5.48699 13.6489 5.01044 13.7761 4.52543 13.776C3.78944 13.7757 3.08331 13.4832 2.56289 12.9628C2.04246 12.4424 1.75029 11.7365 1.75 11.0005C1.75029 10.2647 2.04297 9.55905 2.56342 9.0388C3.08388 8.51855 3.78954 8.22618 4.52543 8.22618C5.0106 8.22596 5.48734 8.35303 5.90803 8.5947C6.32873 8.83637 6.67844 9.18419 6.92266 9.60341L13.2262 5.92364C12.9781 5.49949 12.8473 5.0168 12.848 4.52543C12.8481 4.16082 12.9203 3.79973 13.0599 3.46292C13.1996 3.12612 13.404 2.82007 13.6619 2.56235C13.9198 2.30463 14.2261 2.10029 14.563 1.96089C14.8999 1.82149 15.2609 1.74986 15.6255 1.75C15.99 1.75 16.3508 1.82167 16.6875 1.96116C17.0242 2.10065 17.3299 2.30515 17.5875 2.56289C17.8452 2.82062 18.0496 3.12674 18.189 3.46346C18.3284 3.80018 18.4 4.16101 18.3999 4.52543C18.4 4.8898 18.3284 5.25047 18.189 5.58713C18.0496 5.92379 17.8452 6.22979 17.5875 6.48744C17.3299 6.74508 17.0242 6.94926 16.6875 7.08863C16.3509 7.228 15.9899 7.29966 15.6255 7.29952C15.1402 7.29979 14.6634 7.17299 14.2424 6.93154C13.8214 6.69009 13.471 6.34268 13.2262 5.92364L6.92266 9.60341C7.16998 10.0274 7.30034 10.5097 7.29978 11.0005C7.3006 11.4916 7.16983 11.974 6.92159 12.3977L13.2305 16.0721C13.4749 15.6538 13.8248 15.3069 14.2451 15.066C14.6654 14.8252 15.1411 14.6986 15.6255 14.6991C15.99 14.6991 16.3513 14.771 16.688 14.9106C17.0248 15.0501 17.3304 15.2547 17.5881 15.5126C17.8457 15.7704 18.0503 16.0766 18.1895 16.4134C18.3288 16.7503 18.4002 17.1111 18.3999 17.4756C18.3999 18.2114 18.1078 18.9171 17.5875 19.4374C17.0673 19.9577 16.3613 20.25 15.6255 20.25C14.8895 20.2503 14.1838 19.9582 13.663 19.4382C13.1422 18.9182 12.8488 18.2127 12.848 17.4767V17.4767Z" stroke="#191919" stroke-width="2" stroke-linecap="round"/>
</svg>
